<svg width="45" height="38" viewBox="0 0 45 38" fill="none" xmlns="http://www.w3.org/2000/svg">
<path d="M31.5078 2.5C37.0877 2.50022 41.6112 7.02362 41.6113 12.6035C41.6113 14.6469 41.0019 16.547 39.959 18.1367C36.3076 24.3306 26.8855 31.7743 22.5557 34.3193L22.0557 34.6035L21.5557 34.3193C17.2242 31.7734 7.79478 24.3254 4.14648 18.1299C3.10655 16.5416 2.5 14.6437 2.5 12.6035C2.5001 7.02354 7.02354 2.5001 12.6035 2.5C16.9252 2.5 20.6111 5.21421 22.0547 9.03027C23.4981 5.21391 27.1859 2.5 31.5078 2.5Z" fill="white" fill-opacity="0.3"/>
<path d="M31.5078 2.5L31.5079 0H31.5078V2.5ZM41.6113 12.6035H44.1113V12.6035L41.6113 12.6035ZM39.959 18.1367L37.8686 16.7654C37.8467 16.7988 37.8256 16.8327 37.8054 16.8671L39.959 18.1367ZM22.5557 34.3193L23.791 36.4928C23.8015 36.4868 23.812 36.4807 23.8225 36.4746L22.5557 34.3193ZM22.0557 34.6035L20.8203 36.777C21.5864 37.2124 22.525 37.2124 23.291 36.777L22.0557 34.6035ZM21.5557 34.3193L20.2889 36.4746C20.2993 36.4808 20.3098 36.4868 20.3203 36.4928L21.5557 34.3193ZM4.14648 18.1299L6.30073 16.8613C6.28063 16.8272 6.25973 16.7936 6.23803 16.7604L4.14648 18.1299ZM2.5 12.6035L0 12.6035V12.6035H2.5ZM12.6035 2.5V0H12.6035L12.6035 2.5ZM22.0547 9.03027L19.7164 9.91484C20.0842 10.8871 21.0153 11.5303 22.0548 11.5303C23.0943 11.5302 24.0253 10.887 24.393 9.9147L22.0547 9.03027ZM31.5078 2.5L31.5077 5C35.707 5.00016 39.1113 8.40439 39.1113 12.6036L41.6113 12.6035L44.1113 12.6035C44.1112 5.64284 38.4684 0.000273228 31.5079 0L31.5078 2.5ZM41.6113 12.6035H39.1113C39.1113 14.1421 38.654 15.5682 37.8686 16.7654L39.959 18.1367L42.0493 19.508C43.3497 17.5257 44.1113 15.1516 44.1113 12.6035H41.6113ZM39.959 18.1367L37.8054 16.8671C36.1833 19.6186 33.1538 22.8187 29.8594 25.7202C26.5911 28.5988 23.282 30.9925 21.2888 32.1641L22.5557 34.3193L23.8225 36.4746C26.1592 35.1011 29.7261 32.5004 33.1641 29.4724C36.5761 26.4673 40.0833 22.8487 42.1126 19.4063L39.959 18.1367ZM22.5557 34.3193L21.3203 32.1459L20.8203 32.43L22.0557 34.6035L23.291 36.777L23.791 36.4928L22.5557 34.3193ZM22.0557 34.6035L23.291 32.43L22.791 32.1459L21.5557 34.3193L20.3203 36.4928L20.8203 36.777L22.0557 34.6035ZM21.5557 34.3193L22.8225 32.1641C20.8284 30.992 17.5172 28.597 14.2472 25.7171C10.9511 22.8141 7.92098 19.6128 6.30073 16.8613L4.14648 18.1299L1.99224 19.3984C4.02028 22.8424 7.52903 26.4629 10.9426 29.4693C14.3823 32.4988 17.9515 35.1008 20.2889 36.4746L21.5557 34.3193ZM4.14648 18.1299L6.23803 16.7604C5.45542 15.5652 5 14.1407 5 12.6035H2.5H0C0 15.1467 0.757682 17.5181 2.05494 19.4993L4.14648 18.1299ZM2.5 12.6035L5 12.6036C5.00008 8.40426 8.40427 5.00008 12.6036 5L12.6035 2.5L12.6035 0C5.64282 0.0001266 0.0001266 5.64282 0 12.6035L2.5 12.6035ZM12.6035 2.5V5C15.851 5 18.6281 7.03808 19.7164 9.91484L22.0547 9.03027L24.393 8.14571C22.594 3.39034 17.9994 0 12.6035 0V2.5ZM22.0547 9.03027L24.393 9.9147C25.4809 7.03841 28.2594 5 31.5078 5V2.5V0C26.1123 0 21.5154 3.3894 19.7164 8.14585L22.0547 9.03027Z" fill="white"/>
</svg>
